HIERARCHY
ROOT Hips
{
 OFFSET 0.000000 0.000000 0.000000
 CHANNELS 6 Xposition Yposition Zposition Yrotation Xrotation Zrotation
 JOINT Chest
 {
  OFFSET 0.000000 9.585900 0.002600
  CHANNELS 3 Yrotation Xrotation Zrotation
  JOINT Chest2
  {
   OFFSET 0.000000 9.601200 -0.005300
   CHANNELS 3 Yrotation Xrotation Zrotation
   JOINT Chest3
   {
    OFFSET 0.000000 9.561800 0.000000
    CHANNELS 3 Yrotation Xrotation Zrotation
    JOINT Chest4
    {
     OFFSET 0.000000 9.552100 0.000000
     CHANNELS 3 Yrotation Xrotation Zrotation
     JOINT Neck
     {
      OFFSET 0.000000 14.453000 0.000000
      CHANNELS 3 Yrotation Xrotation Zrotation
      JOINT Head
      {
       OFFSET 0.000000 8.936500 -0.011300
       CHANNELS 3 Yrotation Xrotation Zrotation
       End Site
       {
        OFFSET 0.000000 17.073600 -0.006000
       }
      }
     }
     JOINT RightCollar
     {
      OFFSET -2.921100 9.558500 0.000000
      CHANNELS 3 Yrotation Xrotation Zrotation
      JOINT RightShoulder
      {
       OFFSET -13.519700 0.000000 0.000000
       CHANNELS 3 Yrotation Xrotation Zrotation
       JOINT RightElbow
       {
        OFFSET 0.000000 -29.696600 0.000000
        CHANNELS 3 Yrotation Xrotation Zrotation
        JOINT RightWrist
        {
         OFFSET 0.000000 -24.004700 0.000000
         CHANNELS 3 Yrotation Xrotation Zrotation
         End Site
         {
          OFFSET 0.000000 -17.728500 0.000000
         }
        }
       }
      }
     }
     JOINT LeftCollar
     {
      OFFSET 2.921100 9.558500 0.000000
      CHANNELS 3 Yrotation Xrotation Zrotation
      JOINT LeftShoulder
      {
       OFFSET 13.519700 0.000000 0.000000
       CHANNELS 3 Yrotation Xrotation Zrotation
       JOINT LeftElbow
       {
        OFFSET 0.000000 -29.696600 0.000000
        CHANNELS 3 Yrotation Xrotation Zrotation
        JOINT LeftWrist
        {
         OFFSET 0.000000 -24.004700 0.000000
         CHANNELS 3 Yrotation Xrotation Zrotation
         End Site
         {
          OFFSET 0.000000 -17.728500 0.000000
         }
        }
       }
      }
     }
    }
   }
  }
 }
 JOINT RightHip
 {
  OFFSET -7.771700 -0.012900 -0.001300
  CHANNELS 3 Yrotation Xrotation Zrotation
  JOINT RightKnee
  {
   OFFSET 0.000000 -40.869800 0.001200
   CHANNELS 3 Yrotation Xrotation Zrotation
   JOINT RightAnkle
   {
    OFFSET 0.000000 -39.717900 0.002100
    CHANNELS 3 Yrotation Xrotation Zrotation
    JOINT RightToe
    {
     OFFSET 0.000000 -4.965400 11.033500
     CHANNELS 3 Yrotation Xrotation Zrotation
     End Site
     {
      OFFSET 0.000000 -1.423100 5.872300
     }
    }
   }
  }
 }
 JOINT LeftHip
 {
  OFFSET 7.771700 -0.012900 -0.001300
  CHANNELS 3 Yrotation Xrotation Zrotation
  JOINT LeftKnee
  {
   OFFSET 0.000000 -40.869800 0.001200
   CHANNELS 3 Yrotation Xrotation Zrotation
   JOINT LeftAnkle
   {
    OFFSET 0.000000 -39.717900 0.002100
    CHANNELS 3 Yrotation Xrotation Zrotation
    JOINT LeftToe
    {
     OFFSET 0.000000 -4.965400 11.033500
     CHANNELS 3 Yrotation Xrotation Zrotation
     End Site
     {
      OFFSET 0.000000 -1.423100 5.872300
     }
    }
   }
  }
 }
}
MOTION
Frames: 8
Frame Time: 0.008333
0.000000 85.388000 0.000000 0.000000 -5.767877 0.000000 0.000000 11.653817 0.000000 0.000000 -5.885947 0.000000 0.000000 -0.000000 0.000000 0.000000 -0.000000 0.000000 0.000000 12.528835 0.000000 0.000000 0.711642 0.000000 0.000000 -0.000000 0.000000 0.000000 0.000000 -90.000000 0.000000 -2.309062 0.000000 0.000000 2.309062 0.000000 0.000000 -0.000000 0.000000 0.000000 -0.000000 90.000000 0.000000 -2.309062 0.000000 0.000000 2.309062 0.000000 0.000000 8.520406 0.000000 0.000000 1.905762 0.000000 -0.000000 -4.658285 0.000000 0.000000 -0.000000 0.000000 0.000000 8.520406 0.000000 0.000000 1.905762 0.000000 -0.000000 -4.658285 0.000000 0.000000 -0.000000 0.000000
-93.311589 43.889166 17.316573 176.730679 -21.368020 0.707407 -0.768538 16.698094 2.090572 -0.127773 1.728907 0.295029 -0.164719 2.900961 0.471062 -0.693584 14.713747 2.401067 -4.538886 13.361614 0.282779 -4.909619 -11.624942 1.374458 7.635772 -1.217880 -11.422025 -19.114638 -10.323351 -39.977037 163.770735 -61.132579 -147.193844 -0.183309 -3.151657 -28.036433 -9.127742 -4.777743 -0.233894 5.252625 14.835744 22.577345 -113.942271 -57.419854 82.782394 -6.017878 -11.852621 0.223840 -0.877867 -71.272628 8.475763 -150.103746 68.248181 -148.828889 -10.934607 -26.060386 8.598087 0.353029 -1.068847 0.170251 5.813706 -54.862269 -4.315104 178.065827 58.762460 176.478749 -2.669832 -40.066221 3.202140 0.018762 0.092964 0.021137
-93.319872 43.890067 17.316912 176.796052 -21.369021 0.727052 -0.809928 16.710400 2.043186 -0.138970 1.720215 0.299080 -0.153606 2.913097 0.461018 -0.699293 14.705524 2.401928 -4.541561 13.329792 0.289496 -4.903592 -11.721101 1.368434 7.643157 -1.313837 -11.507992 -19.379249 -11.370016 -39.877000 164.801570 -60.806543 -148.639236 -0.529624 -3.251420 -28.836777 -9.101457 -4.784993 -0.249171 5.277142 14.856199 22.595571 -114.015184 -57.405544 82.856784 -6.038952 -11.855480 0.199017 -0.805172 -71.271655 8.339933 -150.122026 68.232994 -148.849183 -10.980079 -26.101767 8.632978 0.384348 -1.059310 0.166242 5.832152 -54.865864 -4.402843 178.055888 58.773003 176.468008 -2.680021 -40.042143 3.212916 0.021368 0.092668 0.021432
-93.326892 43.891022 17.317837 176.830485 -21.369663 0.745071 -0.824409 16.725140 2.008374 -0.136072 1.720285 0.296303 -0.158354 2.917628 0.457867 -0.689001 14.731610 2.351395 -4.540310 13.264710 0.353894 -4.904922 -11.818358 1.360395 7.621279 -1.446717 -11.546584 -19.558228 -12.448228 -39.726407 165.513905 -60.428219 -149.851643 -0.819815 -3.375546 -29.510312 -9.091263 -4.813610 -0.207031 5.314154 14.878717 22.609251 -114.044162 -57.446831 82.923397 -6.033731 -11.844736 0.232150 -0.745375 -71.272215 8.240580 -150.109948 68.219928 -148.839062 -10.998486 -26.127276 8.658889 0.399164 -1.057888 0.159295 5.860498 -54.870463 -4.466494 178.051597 58.779098 176.464775 -2.684235 -40.012879 3.204975 0.020120 0.082939 0.035014
-93.333398 43.892154 17.319154 176.850050 -21.372218 0.758114 -0.832952 16.741670 1.980814 -0.122057 1.723508 0.294808 -0.175240 2.920279 0.453286 -0.697365 14.749091 2.317763 -4.521442 13.184837 0.373172 -4.916363 -11.888633 1.364474 7.623001 -1.526161 -11.553571 -19.672355 -13.600845 -39.582869 165.870805 -59.985358 -150.807874 -1.030003 -3.521117 -30.052266 -9.057598 -4.829996 -0.190066 5.365681 14.904500 22.618147 -114.080869 -57.471501 82.975777 -6.030511 -11.838910 0.258365 -0.693847 -71.271844 8.161877 -150.107109 68.215098 -148.834314 -11.011798 -26.127639 8.675568 0.413803 -1.062996 0.153049 5.873943 -54.869558 -4.503802 178.058143 58.786267 176.465394 -2.683873 -39.998831 3.209094 0.022246 0.088036 0.028745
-93.340457 43.893478 17.321004 176.864474 -21.376669 0.767227 -0.848513 16.758085 1.954027 -0.111321 1.728967 0.294118 -0.184775 2.912635 0.457509 -0.717686 14.766675 2.282850 -4.526745 13.088079 0.340821 -4.907016 -11.922544 1.387189 7.665931 -1.668908 -11.625794 -19.744857 -14.676757 -39.400903 165.862169 -59.484492 -151.501407 -1.147894 -3.679829 -30.484781 -9.013393 -4.832173 -0.185194 5.431826 14.934324 22.621335 -114.114449 -57.490292 83.016011 -6.034495 -11.844847 0.279235 -0.623528 -71.260242 8.060151 -150.115912 68.225125 -148.832266 -10.997027 -26.138446 8.682829 0.414055 -1.076963 0.149444 5.878660 -54.869347 -4.528544 178.067654 58.791495 176.468633 -2.682594 -39.980215 3.196967 0.024080 0.082940 0.042083
-93.348251 43.894617 17.324564 176.874621 -21.376361 0.771799 -0.870062 16.766934 1.929979 -0.101144 1.735137 0.291739 -0.185408 2.906959 0.462964 -0.750937 14.777735 2.249203 -4.515015 13.030648 0.330746 -4.902591 -11.981369 1.370707 7.763116 -1.847961 -11.669503 -19.775138 -15.733188 -39.264427 165.490505 -58.942176 -151.932066 -1.187250 -3.839252 -30.847377 -8.968442 -4.835405 -0.166854 5.512368 14.983704 22.603431 -114.138732 -57.516399 83.048663 -6.040399 -11.853432 0.303066 -0.563947 -71.254488 7.976158 -150.064179 68.228339 -148.777515 -10.949657 -26.129432 8.680643 0.357856 -1.100868 0.148554 5.864850 -54.878552 -4.535370 178.083710 58.795109 176.475338 -2.684338 -39.956713 3.164080 0.031373 0.078158 0.068354
-93.354240 43.894258 17.333526 176.856923 -21.348850 0.764130 -0.861569 16.745472 1.932892 -0.100829 1.740176 0.283719 -0.210116 2.914075 0.447542 -0.755058 14.773742 2.241963 -4.470390 13.011664 0.345454 -4.918151 -12.063423 1.308275 7.907978 -2.035721 -11.675546 -19.760517 -16.807185 -39.173120 164.794116 -58.374194 -152.110244 -1.173806 -3.985664 -31.188807 -8.911616 -4.830692 -0.159356 5.593862 15.042674 22.584597 -114.153400 -57.549816 83.074512 -6.048443 -11.864956 0.330122 -0.556279 -71.279094 7.975231 -149.886317 68.221132 -148.603216 -10.865958 -26.090137 8.662358 0.364113 -1.113931 0.159683 5.829536 -54.920065 -4.496913 178.097453 58.795458 176.471972 -2.681651 -39.941089 3.139162 0.033711 0.080143 0.076517
